<?xml version="1.0" standalone="no"?>
<!DOCTYPE svg PUBLIC "-//W3C//DTD SVG 20010904//EN"
 "http://www.w3.org/TR/2001/REC-SVG-20010904/DTD/svg10.dtd">
<svg version="1.0" xmlns="http://www.w3.org/2000/svg"
 width="512.000000pt" height="512.000000pt" viewBox="0 0 512.000000 512.000000"
 preserveAspectRatio="xMidYMid meet">

<g transform="translate(0.000000,512.000000) scale(0.100000,-0.100000)"
fill="#000000" stroke="none">
<path d="M2410 5114 c-396 -47 -737 -215 -1004 -494 -212 -222 -357 -500 -418
-803 -33 -160 -32 -453 1 -607 81 -379 290 -723 573 -941 46 -35 108 -89 139
-119 73 -73 89 -120 89 -257 l0 -104 -35 -30 c-47 -42 -58 -88 -51 -218 4 -58
6 -124 5 -146 -2 -35 -2 -132 -1 -295 0 -25 -1 -102 -2 -172 -1 -114 1 -129
20 -154 34 -46 72 -68 126 -74 l51 -5 83 -135 c46 -74 98 -150 115 -169 31
-33 100 -70 130 -71 12 0 18 -14 22 -60 9 -79 26 -119 77 -174 56 -60 124 -86
230 -86 106 0 174 26 230 86 51 55 68 95 77 174 4 47 10 60 22 60 32 0 121 52
143 83 13 17 59 90 104 162 l80 130 52 5 c54 6 92 28 126 74 19 24 21 41 20
144 -2 156 -2 203 -1 330 0 59 -1 125 -2 147 -1 22 1 87 4 145 9 130 -2 177
-50 219 l-35 30 0 104 c0 68 5 119 16 150 20 59 78 124 169 192 296 218 515
551 600 908 36 155 41 208 18 235 -26 31 -73 38 -102 15 -18 -15 -27 -43 -46
-139 -74 -372 -266 -676 -571 -906 -56 -42 -115 -95 -133 -116 -72 -92 -111
-219 -111 -364 l0 -68 -170 0 -170 0 0 273 c0 162 4 288 11 310 6 22 53 102
106 179 140 207 137 197 141 426 4 190 4 192 26 192 40 0 111 54 135 102 27
57 28 147 2 204 -22 47 -73 91 -125 105 -34 9 -36 12 -36 53 0 53 -22 84 -67
92 -47 9 -83 -29 -83 -91 l0 -45 -115 0 c-110 0 -117 -1 -140 -25 -32 -31 -33
-74 -2 -103 22 -21 32 -22 214 -22 161 0 194 -3 207 -16 19 -18 21 -75 4 -92
-17 -17 -1079 -17 -1096 0 -17 17 -15 74 4 92 13 13 46 16 208 16 188 0 193 1
214 23 27 29 28 67 3 98 -18 22 -27 24 -140 27 l-121 4 0 44 c0 60 -36 99 -83
90 -45 -8 -67 -39 -67 -92 0 -41 -2 -44 -36 -53 -52 -14 -103 -58 -125 -105
-26 -57 -25 -147 2 -204 24 -48 95 -102 135 -102 22 0 22 -2 26 -192 4 -229 1
-219 141 -426 53 -77 101 -159 107 -180 6 -26 9 -140 8 -309 l-3 -268 -166 -3
-166 -2 -6 108 c-11 211 -61 302 -245 444 -285 219 -465 487 -546 814 -182
728 222 1470 937 1723 159 56 272 74 462 75 259 1 430 -39 660 -154 406 -203
697 -596 774 -1049 12 -71 26 -120 37 -132 25 -27 75 -25 104 6 21 22 22 30
16 94 -4 39 -18 116 -31 171 -147 603 -637 1070 -1251 1190 -105 21 -366 34
-454 24z m530 -2101 c-1 -102 -5 -170 -14 -193 -7 -19 -58 -104 -114 -188 -60
-90 -108 -173 -117 -204 -12 -41 -15 -110 -15 -340 l0 -288 -120 0 -120 0 0
288 c0 230 -3 299 -15 340 -9 31 -57 114 -117 204 -56 84 -107 169 -114 188
-9 23 -13 91 -14 193 l0 157 380 0 380 0 0 -157z m328 -1445 l-3 -83 -705 0
-705 0 -3 83 -3 82 711 0 711 0 -3 -82z m2 -318 l0 -80 -710 0 -710 0 0 80 0
80 710 0 710 0 0 -80z m-2 -317 l3 -83 -711 0 -710 0 0 78 c0 43 3 82 7 85 3
4 322 6 707 5 l701 -3 3 -82z m-264 -290 c-58 -100 -95 -153 -113 -163 -12 -6
-137 -10 -330 -10 l-311 0 -29 28 c-17 15 -53 64 -81 110 l-50 82 471 0 471 0
-28 -47z m-297 -379 c-4 -41 -37 -94 -58 -94 -12 0 -29 60 -29 101 l0 39 46 0
47 0 -6 -46z"/>
<path d="M480 4220 c-25 -25 -26 -81 -2 -102 42 -39 263 -158 291 -158 51 0
86 63 61 109 -14 27 -270 171 -303 171 -15 0 -36 -9 -47 -20z"/>
<path d="M4435 4165 c-71 -41 -136 -82 -142 -92 -19 -25 -16 -57 8 -87 32 -41
66 -34 187 36 158 91 172 102 172 144 0 42 -29 74 -67 74 -16 0 -83 -31 -158
-75z"/>
<path d="M302 3557 c-27 -29 -28 -67 -3 -98 18 -23 25 -24 174 -27 125 -3 161
0 185 12 41 21 52 68 24 105 l-19 26 -170 3 c-166 2 -169 2 -191 -21z"/>
<path d="M4441 3554 c-23 -30 -25 -42 -12 -77 16 -41 54 -49 221 -45 146 3
153 4 171 27 26 32 24 73 -4 99 -22 21 -33 22 -189 22 l-167 0 -20 -26z"/>
<path d="M715 3039 c-117 -63 -231 -132 -242 -147 -23 -28 -16 -78 13 -101 15
-12 34 -21 43 -21 25 0 262 137 289 166 26 30 28 64 5 92 -27 32 -62 36 -108
11z"/>
<path d="M4320 3047 c-35 -18 -48 -61 -29 -95 15 -28 269 -182 300 -182 9 0
28 9 43 21 29 23 36 73 14 102 -15 19 -250 155 -282 162 -11 3 -32 -1 -46 -8z"/>
</g>
</svg>
