<?xml version="1.0" standalone="no"?>
<!DOCTYPE svg PUBLIC "-//W3C//DTD SVG 20010904//EN"
 "http://www.w3.org/TR/2001/REC-SVG-20010904/DTD/svg10.dtd">
<svg version="1.0" xmlns="http://www.w3.org/2000/svg"
 width="512.000000pt" height="512.000000pt" viewBox="0 0 512.000000 512.000000"
 preserveAspectRatio="xMidYMid meet">

<g transform="translate(0.000000,512.000000) scale(0.100000,-0.100000)"
fill="#000000" stroke="none">
<path d="M1125 5103 c-314 -67 -555 -322 -604 -641 -15 -99 -15 -3705 0 -3804
50 -322 292 -576 611 -642 424 -87 840 208 907 642 15 99 15 3705 0 3804 -15
96 -51 199 -101 283 -49 84 -180 216 -261 264 -168 99 -369 133 -552 94z"/>
<path d="M3685 5103 c-314 -67 -555 -322 -604 -641 -15 -99 -15 -3705 0 -3804
50 -322 292 -576 611 -642 424 -87 840 208 907 642 15 99 15 3705 0 3804 -15
96 -51 199 -101 283 -49 84 -180 216 -261 264 -168 99 -369 133 -552 94z"/>
</g>
</svg>
